<svg width="200" height="200" viewBox="0 0 200 200" fill="none" xmlns="http://www.w3.org/2000/svg">
  <!-- Pink shopping cart with heart -->
  <rect x="0" y="0" width="200" height="200" fill="white"/>
  
  <!-- Shopping cart body -->
  <path d="M40 70H160C165 70 170 75 170 80V100C170 105 165 110 160 110H40C35 110 30 105 30 100V80C30 75 35 70 40 70Z" fill="#FF1493"/>
  
  <!-- Cart handle -->
  <path d="M25 70H35V80H25C20 80 20 70 25 70Z" fill="#FF1493"/>
  
  <!-- Heart in cart -->
  <path d="M100 85C95 80 85 80 85 90C85 100 100 105 100 105C100 105 115 100 115 90C115 80 105 80 100 85Z" fill="white"/>
  
  <!-- Cart wheels -->
  <circle cx="55" cy="125" r="8" fill="#FF1493"/>
  <circle cx="145" cy="125" r="8" fill="#FF1493"/>
  
  <!-- TEE ME YOU text -->
  <text x="100" y="155" font-family="Arial, sans-serif" font-size="16" font-weight="bold" text-anchor="middle" fill="#FF1493">TEE ME</text>
  <text x="100" y="175" font-family="Arial, sans-serif" font-size="16" font-weight="bold" text-anchor="middle" fill="#FF1493">YOU</text>
</svg>