<svg width="200" height="200" viewBox="0 0 200 200" fill="none" xmlns="http://www.w3.org/2000/svg">
  <g>
    <path
      d="M30 60H170C175 60 180 65 180 70V90C180 95 175 100 170 100H30C25 100 20 95 20 90V70C20 65 25 60 30 60Z"
      fill="#FF69B4"
    />
    <path
      d="M100 75L115 90H85L100 75Z"
      fill="white"
    />
    <circle cx="50" cy="130" r="15" fill="#FF69B4" />
    <circle cx="150" cy="130" r="15" fill="#FF69B4" />
    <path
      d="M47.52 169V155.32H50.88V166.4H58.92V169H47.52ZM60.9863 169V155.32H64.3463V169H60.9863ZM72.0884 169V155.32H75.4484V169H72.0884ZM82.8722 169L77.8322 155.32H81.4722L84.5922 165.68L87.7522 155.32H91.1122L86.0722 169H82.8722ZM97.5263 169V155.32H105.566C106.286 155.32 106.926 155.493 107.486 155.84C108.046 156.173 108.479 156.633 108.786 157.22C109.093 157.807 109.246 158.46 109.246 159.18V165.14C109.246 165.86 109.093 166.513 108.786 167.1C108.479 167.687 108.046 168.153 107.486 168.5C106.926 168.833 106.286 169 105.566 169H97.5263ZM100.886 166.4H105.166C105.406 166.4 105.619 166.313 105.806 166.14C106.006 165.953 106.106 165.733 106.106 165.48V158.84C106.106 158.587 106.006 158.373 105.806 158.2C105.619 158.013 105.406 157.92 105.166 157.92H100.886V166.4ZM118.069 169V164.92H113.709V162.32H118.069V160.16H113.709V157.92H118.069V155.32H110.349V169H118.069ZM131.243 169L127.803 162.68L131.243 155.32H127.783L125.643 160.16H124.483V155.32H121.123V169H124.483V162.68H125.643L127.803 169H131.243ZM137.56 169V164.12C137.56 163.893 137.633 163.707 137.78 163.56C137.927 163.413 138.113 163.34 138.34 163.34H141.26C141.487 163.34 141.673 163.413 141.82 163.56C141.967 163.707 142.04 163.893 142.04 164.12V169H145.4V163.72C145.4 162.973 145.24 162.313 144.92 161.74C144.613 161.153 144.173 160.693 143.6 160.36C143.04 160.027 142.407 159.86 141.7 159.86H137.9C137.193 159.86 136.553 160.027 135.98 160.36C135.407 160.693 134.967 161.153 134.66 161.74C134.353 162.313 134.2 162.973 134.2 163.72V169H137.56ZM136.28 158.28C136.28 158.507 136.353 158.693 136.5 158.84C136.647 158.987 136.833 159.06 137.06 159.06H142.54C142.767 159.06 142.953 158.987 143.1 158.84C143.247 158.693 143.32 158.507 143.32 158.28V155.32H139.96V157.02C139.96 157.247 139.887 157.433 139.74 157.58C139.593 157.727 139.407 157.8 139.18 157.8H136.28V158.28Z"
      fill="#FF69B4"
    />
  </g>
</svg>
