<svg xmlns="http://www.w3.org/2000/svg" viewBox="0 0 400 300" width="400" height="300">
      <defs>
        <style>
          .cart-color { fill: #FF1493; }
          .heart-color { fill: #FF1493; }
        </style>
      </defs>
      
      <!-- Shopping Cart -->
      <path class="cart-color" d="M20 40 L60 40 L120 200 L340 200 L380 100 L100 100 L80 40 Z" stroke="#FF1493" stroke-width="8" fill="none"/>
      
      <!-- Cart Base -->
      <rect class="cart-color" x="120" y="200" width="220" height="40" rx="20"/>
      
      <!-- Cart Handle -->
      <path class="cart-color" d="M20 40 C20 25, 35 25, 50 25 L80 25 C95 25, 95 40, 95 40" stroke="#FF1493" stroke-width="8" fill="none"/>
      
      <!-- Heart in Cart -->
      <path class="heart-color" d="M200 130 C190 120, 175 120, 175 140 C175 120, 160 120, 150 130 C140 140, 150 160, 175 180 C200 160, 210 140, 200 130 Z"/>
      
      <!-- Cart Wheels -->
      <circle class="cart-color" cx="160" cy="270" r="20"/>
      <circle class="cart-color" cx="300" cy="270" r="20"/>
    </svg>